<svg width="100" height="84" viewBox="0 0 100 84" fill="none" xmlns="http://www.w3.org/2000/svg">
  <path d="M80 12.5h-4.9v3.3h1.3v6.1h-1.9c-.1 0-.2 0-.2-.1-.1 0-.1-.1-.2-.1-.1-.1-.1-.1-.1-.2V4v-.3c0-.1.1-.2.1-.2.1-.1.1-.1.2-.1h1.6c.4 0 .6.3.6.6v4.8H80V3.1c0-1.7-.9-3.1-2.8-3.1h-4.1c-1.9 0-2.8 1.4-2.8 3.1v19.1c0 1.7 1.1 3.1 2.8 3.1h2.2c.5 0 1-.1 1.4-.4.4-.2.8-.6 1-1l.8 1.4H80V12.5zM64.4 11.7L61.6 0h-3.5v25.2h3.6V12.4h.1l2.9 12.8h3.5V0h-3.7v11.7h-.1zM56 0h-3.7v25.2H56V0zM50.5 0h-3.6l-2.8 11.3H44V0h-3.8v25.2h3.9v-8.8h.2l3 8.8H51l-4.2-11.5L50.5 0zM31.9 13.2V3.4h1.7c.4 0 .6.3.6.6v8.6c0 .3-.1.6-.6.6h-1.7zm1 3.3l2.2 8.7h3.8L37 17.8l-1.4-1.3c1.9-.2 2.4-1.6 2.4-2.9V3.1C37.9 1.4 36.9 0 35 0h-6.7v25.2H32v-8.7h.9zM23.5 25.2c1.7 0 2.8-1.3 2.8-3.1v-19c0-1.7-.9-3.1-2.8-3.1h-4.1c-1.9 0-2.8 1.4-2.8 3.1v19.1c0 1.7 1.1 3.1 2.8 3.1h4.1zm-2.7-3.3c-.1 0-.2 0-.2-.1s-.1-.1-.2-.1c-.1-.1-.1-.1-.1-.2V4v-.3c0-.1.1-.2.1-.2.1-.1.1-.1.2-.1h1.6c.4 0 .6.3.6.6v17.2c0 .3-.1.6-.6.6h-1.4zM7.5 8.5l1 16.7h4.1L15.1 0h-3.9l-.6 17.9h-.2L9.2 0H5.9L4.8 17.9h-.2L3.9 0H0l2.3 25.2h4L7.4 8.5h.1zM63.7 65.5l-2.1-9.8h-3.8L62 70.9V81h3.6V70.8l4-15h-3.7l-2 9.8h-.2zM53.4 59.1h3.1v-3.4h-9.8v3.4h3.1V81h3.6V59.1zM39.3 69v-9.9H41c.4 0 .6.3.6.6v8.6c0 .3-.1.6-.6.6l-1.7.1zm.9 3.3l2.2 8.7h3.8l-1.9-7.4-1.4-1.3c1.9-.2 2.4-1.6 2.4-2.9V58.8c0-1.7-.9-3-2.8-3h-6.7V81h3.6v-8.7h.8zM29.6 73.6h-2.2l1-11.2h.2l1 11.2zM26.7 81l.3-3.9h2.9l.3 3.9h3.9l-3.3-25.2h-4.6L22.9 81h3.8zM16.8 69v-9.9h1.7c.4 0 .6.3.6.6v8.6c0 .3-.1.6-.6.6l-1.7.1zm3.2 3.3c1.7 0 2.8-1.3 2.8-3V58.8c0-1.7-.9-3-2.8-3h-6.7V81h3.6v-8.7H20zM73.5 31.9v-.3c0-.1.1-.2.1-.2.1-.1.1-.1.2-.1H75.2c.4 0 .6.3.6.6v5.7h3.6V31c0-1.7-.9-3.1-2.8-3.1h-3.9c-1.9 0-2.8 1.4-2.8 3.1v5.3c0 1.8.4 2.5 1.5 3.8l3.4 4.3c1.1 1.5 1.3 1.9 1.3 3.4v1.3c0 .3-.1.6-.6.6H74c-.1 0-.2 0-.2-.1-.1 0-.1-.1-.2-.1-.1-.1-.1-.1-.1-.2v-4.4h-3.6v5.2c0 1.7 1.1 3 2.8 3h4.2c1.7 0 2.8-1.3 2.8-3v-3.4c0-1.8-.3-2.8-1.4-4.1l-3.9-4.9c-.5-.6-.7-1.1-.7-2.4v-3.4zM59.8 53.1h8.3v-3.4h-4.7V39.5h4.4v-3.4h-4.4v-4.8h4.7v-3.4h-8.3v25.2zM57.8 27.9h-3.7v25.2h3.7V27.9zM44.6 53.1h7.9v-3.4h-4.3V27.9h-3.6v25.2zM42.5 27.9h-3.7v25.2h3.7V27.9zM30.4 43.8L33 37h.1v16.1h3.6V27.9H33l-2.8 7.8h-.1l-2.9-7.8h-3.6v25.2h3.6V37h.1l2.6 6.7h.5zM17.6 45.7h-2.2l1-11.2h.2l1 11.2zm-2.8 7.4l.3-3.9H18l.3 3.9h3.9l-3.3-25.2h-4.6l-3.4 25.2h3.9zM2.8 53.1h3.6V39.4h4.3v-3.3H6.4v-4.8H11v-3.4H2.8v25.2z" fill="#3B0764"/>
</svg>
