<svg width="494" height="247" viewBox="0 0 494 247" fill="none" xmlns="http://www.w3.org/2000/svg">
<path fill-rule="evenodd" clip-rule="evenodd" d="M71.7641 109.087L66.2773 161.261L72.0772 160.855L71.8691 162.834L84.1271 161.977L86.0746 143.62L87.8322 148.53L92.1942 148.225L92.8801 150.142L101.801 149.518L103.975 145.509L102.573 158.723L108.376 158.317L108.166 160.296L120.492 159.434L125.713 109.797L122.457 110.025L122.932 105.509L107.897 106.561L95.8621 127.669L89.8919 112.302L88.2364 112.418L86.5412 108.054L71.7641 109.087ZM85.6131 112.601L84.8702 110.689L74.0417 111.446L69.0884 158.546L72.3439 158.319L77.0891 113.197L85.6131 112.601ZM86.6846 137.871L89.5556 145.892L91.3149 145.769L87.0969 133.985L86.6846 137.871ZM107.115 139.719L105.387 156.008L108.645 155.78L111.136 132.304L107.115 139.719ZM119.913 110.203L120.121 108.224L109.413 108.972L97.0338 130.685L98.8215 135.287L112.842 110.697L119.913 110.203Z" fill="#F1EFFD"/>
<path fill-rule="evenodd" clip-rule="evenodd" d="M137.407 104.497L122.614 157.321L129.051 156.871L128.49 158.874L141.498 157.965L144.087 147.04L150.121 146.618L150.398 155.378L155.737 155.005L155.799 156.965L168.738 156.06L165.037 107.047L162.345 107.235L162.009 102.777L137.407 104.497ZM159.84 107.411L159.692 105.457L139.348 106.879L125.994 154.567L129.771 154.303L142.564 108.619L159.84 107.411ZM152.629 146.443L152.826 152.691L155.657 152.493L155.46 146.245L152.629 146.443ZM146.712 135.722L146.241 137.719L155.162 137.095L154.701 119.746L151.855 119.945L152.263 135.334L146.712 135.722ZM147.316 133.162L149.453 124.108L149.688 132.996L147.316 133.162Z" fill="#F1EFFD"/>
<path fill-rule="evenodd" clip-rule="evenodd" d="M176.439 101.768L170.952 153.941L176.752 153.536L176.544 155.514L189.619 154.6L191.121 136.196L197.334 152.096L201.606 151.797L202.353 153.709L216.11 152.748L208.522 133.296C210.102 132.41 211.487 131.012 212.677 129.104C213.912 127.193 214.699 124.743 215.037 121.754L215.619 116.375C215.731 115.364 215.755 114.404 215.692 113.496C215.508 110.863 214.538 108.741 212.783 107.13C212.451 106.829 212.09 106.553 211.7 106.303C211.156 105.169 210.406 104.156 209.446 103.274L209.443 103.272L209.44 103.269C206.726 100.811 202.545 99.9423 197.239 100.313L176.439 101.768ZM207.205 104.683C205.194 103.207 202.016 102.497 197.414 102.819L178.716 104.126L173.763 151.227L177.018 150.999L181.764 105.877L201.513 104.496C203.653 104.347 205.55 104.409 207.205 104.683ZM193.704 135.906L199.001 149.462L200.649 149.347L195.352 135.791L193.704 135.906ZM192.071 125.775L191.916 127.75L196.683 127.417C199.089 127.249 200.774 126.561 201.739 125.353C202.701 124.099 203.115 122.519 202.982 120.612C202.779 117.709 201.694 116.02 199.727 115.543C199.894 116.18 199.997 116.868 200.048 117.594C200.198 119.74 199.735 121.641 198.549 123.187L198.542 123.196L198.534 123.206C197.253 124.81 195.147 125.56 192.584 125.74L192.071 125.775ZM192.27 123.244L192.858 115.777L197.066 115.483C197.303 116.05 197.475 116.798 197.543 117.77C197.659 119.432 197.297 120.688 196.564 121.648C195.914 122.455 194.65 123.077 192.409 123.234L192.27 123.244Z" fill="#F1EFFD"/>
<path fill-rule="evenodd" clip-rule="evenodd" d="M218.424 98.8319L216.986 112.126L222.796 111.72L222.582 113.699L233.606 112.928L229.756 149.829L235.553 149.424L235.347 151.402L247.673 150.54L251.729 111.661L268.482 110.489L269.646 99.7322L266.381 99.9605L266.869 95.4443L218.424 98.8319ZM263.835 100.138L264.049 98.1593L220.696 101.191L219.806 109.411L223.071 109.183L223.746 102.942L263.835 100.138ZM236.15 112.75L232.565 147.115L235.818 146.887L239.403 112.522L236.15 112.75Z" fill="#F1EFFD"/>
<path fill-rule="evenodd" clip-rule="evenodd" d="M272.648 95.0402L267.162 147.213L272.961 146.808L272.753 148.787L285.079 147.925L290.231 98.2927L286.98 98.52L287.449 94.0052L272.648 95.0402ZM284.436 98.6979L284.642 96.7193L274.926 97.3987L269.973 144.499L273.228 144.271L277.973 99.1498L284.436 98.6979Z" fill="#F1EFFD"/>
<path fill-rule="evenodd" clip-rule="evenodd" d="M295.276 93.4579L289.789 145.631L295.589 145.226L295.381 147.204L307.707 146.342L309.575 127.926L315.905 143.805L320.156 143.508L320.918 145.419L333.244 144.557L338.396 94.9246L335.145 95.152L335.613 90.6372L320.814 91.6721L318.869 110.124L313.267 96.6818L311.708 96.7909L309.893 92.4357L295.276 93.4579ZM309.064 96.9757L308.269 95.0672L297.553 95.8165L292.6 142.917L295.856 142.689L300.601 97.5676L309.064 96.9757ZM310.123 122.519L317.559 141.171L319.18 141.058L310.461 119.187L310.123 122.519ZM332.601 95.3299L332.807 93.3513L323.091 94.0307L320.884 114.961L323.464 121.152L326.138 95.7818L332.601 95.3299Z" fill="#F1EFFD"/>
<path fill-rule="evenodd" clip-rule="evenodd" d="M343.441 90.0899L337.954 142.263L343.754 141.858L343.545 143.836L377.732 141.446L378.896 130.689L375.631 130.917L376.119 126.401L357.418 127.709L357.772 124.159L375.887 122.893L377.051 112.136L373.786 112.364L374.275 107.848L359.384 108.889L359.86 104.099L381.788 102.566L382.952 91.809L379.687 92.0373L380.176 87.5211L343.441 90.0899ZM377.141 92.2153L377.355 90.2362L345.718 92.4485L340.765 139.549L344.02 139.321L348.766 94.1996L377.141 92.2153ZM373.085 131.095L373.299 129.116L357.165 130.244L356.967 132.222L373.085 131.095ZM371.24 112.542L371.454 110.563L359.132 111.424L358.936 113.402L371.24 112.542Z" fill="#F1EFFD"/>
<path fill-rule="evenodd" clip-rule="evenodd" d="M386.428 87.084L384.989 100.378L390.8 99.9716L390.585 101.951L403.442 101.052L382.949 125.923L382.371 125.964L380.933 139.258L386.744 138.851L386.529 140.831L422.418 138.321L423.582 127.564L420.317 127.792L420.806 123.276L406.049 124.308L426.542 99.4364L427.706 88.6795L424.441 88.9078L424.93 84.3916L386.428 87.084ZM421.896 89.0858L422.11 87.1066L388.699 89.443L387.809 97.6629L391.074 97.4346L391.749 91.1938L421.896 89.0858ZM406.896 100.81L384.705 127.742L383.753 136.543L387.018 136.314L387.693 130.074L387.761 130.069L412.173 100.441L406.896 100.81ZM417.772 127.97L417.986 125.991L403.848 126.98L402.13 129.064L417.772 127.97Z" fill="#F1EFFD"/>
<path d="M83.3919 91.295C80.7996 91.4763 78.4584 91.0081 76.3685 89.8904C74.2786 88.7727 72.5913 87.1433 71.3068 85.0021C70.0222 82.8609 69.2785 80.3402 69.0757 77.4399C68.8693 74.4882 69.2595 71.8624 70.2465 69.5624C71.2334 67.2624 72.6779 65.4204 74.58 64.0365C76.4949 62.6517 78.7357 61.8695 81.3024 61.69C83.3813 61.5447 85.3098 61.8289 87.0878 62.5428C88.8786 63.2558 90.3903 64.3108 91.6228 65.7076C92.8682 67.1036 93.7067 68.7666 94.1382 70.6966L89.807 70.9995C89.2853 69.2563 88.2869 67.8882 86.8118 66.8952C85.3358 65.8893 83.6097 65.4555 81.6334 65.5937C79.8239 65.7202 78.2708 66.2867 76.9742 67.2929C75.6904 68.2983 74.7274 69.6488 74.0851 71.3444C73.4548 73.0263 73.2159 74.9581 73.3684 77.1397C73.5201 79.3085 74.0255 81.1882 74.8847 82.7788C75.7558 84.3557 76.897 85.5526 78.3082 86.3696C79.7313 87.1728 81.3541 87.5106 83.1764 87.3832C84.6779 87.2782 86.0093 86.8627 87.1708 86.1367C88.3451 85.4098 89.2452 84.4506 89.8712 83.2591C90.5091 82.0538 90.7815 80.6936 90.6884 79.1784L83.5852 79.6751L83.3362 76.1138L94.6551 75.3223L94.8853 78.6141C95.045 80.8984 94.6483 82.9701 93.695 84.8293C92.7409 86.6757 91.3693 88.1773 89.5803 89.3341C87.8032 90.4771 85.7404 91.1308 83.3919 91.295ZM99.6835 89.6915L98.262 69.3636L102.324 69.0796L103.745 89.4075L99.6835 89.6915ZM100.038 65.7188C99.3196 65.7691 98.6934 65.5743 98.1597 65.1345C97.638 64.6809 97.3528 64.1076 97.3044 63.4146C97.255 62.7088 97.4576 62.1014 97.912 61.5925C98.3784 61.0698 98.971 60.7834 99.6896 60.7331C100.408 60.6829 101.035 60.8841 101.57 61.3367C102.103 61.7766 102.395 62.3494 102.444 63.0552C102.493 63.7482 102.284 64.356 101.817 64.8787C101.35 65.3885 100.757 65.6686 100.038 65.7188ZM115.906 89.0407C114.353 89.1493 112.937 88.9969 111.657 88.5834C110.377 88.17 109.318 87.4961 108.479 86.5618C107.653 85.6265 107.143 84.4306 106.951 82.9739L110.955 82.6939C111.346 84.962 112.895 86.0015 115.603 85.8121C116.886 85.7224 117.882 85.3884 118.589 84.8102C119.31 84.2311 119.642 83.5373 119.585 82.7288C119.537 82.0358 119.229 81.5028 118.661 81.1298C118.092 80.744 117.365 80.4854 116.479 80.3539L113.058 79.8387C109.11 79.2636 107.03 77.4618 106.818 74.4331C106.693 72.6365 107.303 71.1237 108.648 69.8947C110.007 68.6649 111.847 67.9688 114.17 67.8063C116.467 67.6457 118.395 68.1105 119.955 69.2008C121.526 70.2774 122.409 71.8405 122.604 73.8903L118.715 74.1622C118.633 73.1749 118.204 72.386 117.428 71.7955C116.651 71.1922 115.659 70.9327 114.452 71.017C113.297 71.0978 112.399 71.4315 111.756 72.018C111.114 72.6046 110.82 73.2893 110.875 74.0721C110.923 74.7651 111.219 75.3054 111.762 75.693C112.318 76.0797 113.058 76.3439 113.984 76.4855L117.503 77.0132C119.509 77.3113 121.013 77.8832 122.014 78.7289C123.014 79.5745 123.566 80.7352 123.669 82.2111C123.76 83.5072 123.479 84.6488 122.825 85.6359C122.184 86.6093 121.266 87.3957 120.069 87.9952C118.872 88.5818 117.485 88.9303 115.906 89.0407ZM136.387 87.5892C134.372 87.7301 132.608 87.3957 131.094 86.5859C129.593 85.7753 128.395 84.6016 127.501 83.0651C126.619 81.5148 126.106 79.7194 125.964 77.6789C125.819 75.6127 126.095 73.7493 126.792 72.0886C127.488 70.4279 128.516 69.0922 129.877 68.0814C131.237 67.0578 132.841 66.4814 134.689 66.3522C136.614 66.2176 138.314 66.5501 139.788 67.3497C141.275 68.1484 142.467 69.3225 143.362 70.8719C144.256 72.4085 144.776 74.2227 144.922 76.3145L144.999 77.4117L130.042 78.4576C130.247 80.2874 130.877 81.7328 131.931 82.794C132.998 83.8542 134.424 84.3219 136.208 84.1972C137.542 84.1039 138.618 83.7256 139.436 83.0623C140.254 82.399 140.77 81.5762 140.985 80.594L144.893 80.3207C144.741 81.6468 144.276 82.8399 143.499 83.9001C142.735 84.9595 141.737 85.8159 140.506 86.4694C139.287 87.1091 137.914 87.4824 136.387 87.5892ZM129.865 75.375L140.818 74.609C140.538 73.0037 139.878 71.7667 138.837 70.8981C137.795 70.0167 136.504 69.6298 134.964 69.7375C133.424 69.8451 132.2 70.4079 131.291 71.4258C130.394 72.4299 129.919 73.7463 129.865 75.375ZM151.212 57.2658L153.217 85.9481L149.156 86.2321L147.15 57.5498L151.212 57.2658ZM159.874 56.66L161.88 85.3423L157.818 85.6263L155.812 56.944L159.874 56.66ZM175.195 84.8755C173.18 85.0164 171.415 84.682 169.901 83.8722C168.4 83.0616 167.203 81.8879 166.309 80.3514C165.427 78.8011 164.914 77.0057 164.771 74.9652C164.627 72.899 164.903 71.0356 165.599 69.3749C166.296 67.7142 167.324 66.3785 168.685 65.3677C170.045 64.3441 171.649 63.7677 173.497 63.6385C175.422 63.5039 177.121 63.8364 178.596 64.636C180.083 65.4347 181.274 66.6088 182.169 68.1582C183.063 69.6948 183.584 71.509 183.73 73.6008L183.807 74.698L168.849 75.7439C169.055 77.5737 169.685 79.0191 170.739 80.0803C171.806 81.1405 173.232 81.6082 175.015 81.4835C176.35 81.3902 177.426 81.0119 178.244 80.3486C179.061 79.6853 179.578 78.8625 179.793 77.8803L183.701 77.607C183.548 78.9331 183.084 80.1262 182.307 81.1864C181.542 82.2458 180.545 83.1022 179.314 83.7557C178.095 84.3954 176.722 84.7687 175.195 84.8755ZM168.673 72.6613L179.626 71.8953C179.346 70.29 178.686 69.053 177.645 68.1844C176.603 67.303 175.312 66.9161 173.772 67.0238C172.232 67.1314 171.008 67.6942 170.099 68.7121C169.202 69.7162 168.726 71.0326 168.673 72.6613Z" fill="#F1EFFD"/>
<path d="M196.7 175.038L196.864 177.383L193.967 177.585L194.798 189.47L191.954 189.669L191.123 177.784L188.577 177.962L188.413 175.617L190.959 175.439L190.798 173.135C190.72 172.012 191.009 171.116 191.666 170.447C192.333 169.778 193.308 169.398 194.593 169.309L196.291 169.19L196.455 171.534L195.202 171.622C194.6 171.664 194.182 171.82 193.948 172.089C193.723 172.357 193.631 172.793 193.673 173.394L193.803 175.24L196.7 175.038ZM205.721 189.031C204.365 189.126 203.153 188.895 202.085 188.338C201.017 187.78 200.156 186.965 199.503 185.891C198.859 184.817 198.487 183.552 198.385 182.097C198.282 180.623 198.474 179.31 198.962 178.157C199.459 176.993 200.197 176.062 201.177 175.361C202.157 174.652 203.325 174.25 204.681 174.155C206.038 174.06 207.246 174.296 208.305 174.863C209.373 175.42 210.23 176.24 210.874 177.324C211.527 178.397 211.905 179.671 212.008 181.144C212.11 182.599 211.912 183.904 211.415 185.058C210.927 186.212 210.193 187.139 209.213 187.839C208.242 188.539 207.078 188.936 205.721 189.031ZM205.55 186.579C206.772 186.493 207.701 185.977 208.339 185.03C208.977 184.082 209.243 182.854 209.138 181.345C209.031 179.818 208.591 178.625 207.818 177.767C207.054 176.909 206.065 176.522 204.853 176.607C203.64 176.692 202.71 177.213 202.064 178.17C201.426 179.117 201.161 180.359 201.268 181.895C201.375 183.413 201.809 184.597 202.573 185.446C203.336 186.287 204.328 186.664 205.55 186.579ZM215.023 188.056L214.028 173.826L216.75 173.636L216.911 175.94L216.965 175.936C217.171 175.136 217.538 174.502 218.064 174.031C218.6 173.552 219.321 173.28 220.228 173.217C220.444 173.202 220.642 173.197 220.823 173.202C221.004 173.207 221.153 173.211 221.27 173.211L221.456 175.866C221.346 175.847 221.151 175.833 220.871 175.826C220.59 175.809 220.283 175.813 219.951 175.836C219.151 175.892 218.484 176.218 217.948 176.815C217.421 177.412 217.198 178.29 217.279 179.448L217.867 187.857L215.023 188.056Z" fill="#F1EFFD"/>
<path d="M248.156 193.304C245.525 193.488 243.159 193.028 241.057 191.924C238.955 190.82 237.262 189.198 235.977 187.056C234.693 184.915 233.948 182.382 233.744 179.456C233.537 176.504 233.921 173.879 234.895 171.58C235.869 169.28 237.314 167.439 239.229 166.054C241.156 164.668 243.442 163.883 246.086 163.698C248.178 163.552 250.099 163.83 251.851 164.533C253.615 165.235 255.108 166.297 256.329 167.721C257.55 169.131 258.398 170.845 258.875 172.862L254.524 173.167C253.964 171.246 252.955 169.807 251.495 168.852C250.047 167.883 248.348 167.466 246.398 167.603C244.511 167.735 242.92 168.304 241.623 169.31C240.326 170.316 239.363 171.667 238.734 173.362C238.117 175.055 237.885 176.987 238.036 179.156C238.188 181.324 238.687 183.198 239.532 184.777C240.378 186.355 241.512 187.553 242.936 188.369C244.373 189.184 246.035 189.526 247.921 189.394C249.859 189.258 251.478 188.616 252.777 187.468C254.09 186.319 254.903 184.759 255.217 182.79L259.548 182.487C259.356 184.538 258.754 186.354 257.743 187.933C256.73 189.5 255.399 190.754 253.75 191.694C252.113 192.621 250.248 193.158 248.156 193.304ZM264.005 191.732L262.583 171.404L266.645 171.12L268.067 191.448L264.005 191.732ZM264.36 167.759C263.641 167.809 263.015 167.614 262.481 167.175C261.959 166.721 261.674 166.148 261.626 165.455C261.576 164.749 261.779 164.142 262.234 163.633C262.7 163.11 263.292 162.823 264.011 162.773C264.73 162.723 265.356 162.924 265.891 163.377C266.425 163.817 266.716 164.389 266.766 165.095C266.814 165.788 266.605 166.396 266.139 166.919C265.671 167.429 265.078 167.709 264.36 167.759ZM281.391 170.089L281.625 173.438L277.505 173.726L278.317 185.334C278.37 186.091 278.561 186.606 278.889 186.88C279.218 187.154 279.787 187.262 280.595 187.206L282.578 187.067L282.812 190.416L280.252 190.596C276.492 190.858 274.499 189.373 274.272 186.139L273.424 174.012L269.844 174.262L269.61 170.912L273.19 170.662L272.802 165.118L276.883 164.833L277.271 170.377L281.391 170.089ZM287.937 198.144L287.697 194.717L289.892 194.564C290.533 194.519 291.04 194.297 291.412 193.897C291.798 193.509 292.115 192.887 292.365 192.031L293.121 189.56L283.855 169.916L288.205 169.612L293.046 180.474C293.369 181.212 293.685 181.957 293.996 182.709C294.305 183.449 294.608 184.188 294.905 184.928C295.096 184.154 295.293 183.379 295.497 182.604C295.713 181.815 295.929 181.033 296.145 180.257L299.37 168.831L303.663 168.531L296.093 193.066C295.16 196.136 293.301 197.769 290.516 197.964L287.937 198.144ZM329.93 187.586C327.299 187.77 324.932 187.31 322.831 186.206C320.729 185.102 319.035 183.48 317.751 181.338C316.466 179.197 315.722 176.664 315.517 173.738C315.311 170.786 315.695 168.161 316.669 165.861C317.643 163.562 319.087 161.72 321.002 160.336C322.93 158.95 325.216 158.165 327.859 157.98C329.951 157.833 331.873 158.112 333.624 158.815C335.388 159.517 336.881 160.579 338.103 162.003C339.323 163.413 340.172 165.127 340.648 167.144L336.298 167.448C335.738 165.527 334.728 164.089 333.268 163.134C331.821 162.165 330.122 161.748 328.171 161.885C326.285 162.017 324.693 162.586 323.396 163.592C322.1 164.598 321.137 165.949 320.507 167.643C319.891 169.337 319.658 171.269 319.81 173.437C319.961 175.606 320.46 177.48 321.305 179.059C322.151 180.637 323.286 181.835 324.71 182.651C326.147 183.466 327.808 183.807 329.695 183.676C331.633 183.54 333.251 182.898 334.551 181.75C335.863 180.601 336.676 179.041 336.99 177.072L341.321 176.769C341.129 178.82 340.528 180.635 339.516 182.215C338.504 183.782 337.173 185.035 335.523 185.976C333.886 186.903 332.021 187.44 329.93 187.586ZM354.55 185.864C352.612 186 350.88 185.67 349.355 184.874C347.829 184.078 346.6 182.913 345.667 181.379C344.747 179.844 344.215 178.037 344.069 175.958C343.922 173.853 344.197 171.977 344.894 170.329C345.604 168.668 346.658 167.337 348.058 166.336C349.458 165.322 351.126 164.748 353.064 164.612C355.002 164.477 356.728 164.814 358.242 165.624C359.767 166.42 360.991 167.592 361.911 169.139C362.844 170.673 363.384 172.492 363.531 174.597C363.676 176.676 363.394 178.54 362.684 180.189C361.987 181.837 360.938 183.161 359.538 184.161C358.151 185.161 356.488 185.729 354.55 185.864ZM354.305 182.361C356.05 182.239 357.379 181.501 358.29 180.148C359.201 178.794 359.582 177.04 359.431 174.884C359.278 172.702 358.65 170.999 357.545 169.773C356.454 168.547 355.042 167.995 353.309 168.116C351.577 168.237 350.249 168.981 349.326 170.348C348.414 171.702 348.035 173.475 348.189 175.67C348.34 177.839 348.962 179.53 350.052 180.743C351.142 181.944 352.56 182.483 354.305 182.361ZM375.22 184.361C373.834 184.458 372.562 184.244 371.403 183.719C370.257 183.18 369.314 182.337 368.576 181.189C367.851 180.04 367.427 178.58 367.303 176.809L366.417 164.143L370.479 163.859L371.33 176.025C371.444 177.655 371.921 178.859 372.762 179.639C373.603 180.405 374.729 180.739 376.14 180.641C377.513 180.545 378.639 180.04 379.516 179.128C380.406 178.202 380.785 176.795 380.653 174.909L379.834 163.205L383.896 162.921L385.318 183.249L381.333 183.527L381.119 180.467C379.894 182.873 377.928 184.172 375.22 184.361ZM393.142 170.94L393.961 182.644L389.899 182.928L388.478 162.6L392.462 162.322L392.676 165.382C393.901 162.976 395.867 161.677 398.575 161.488C399.974 161.39 401.246 161.611 402.393 162.15C403.552 162.675 404.494 163.512 405.219 164.66C405.944 165.809 406.368 167.269 406.492 169.04L407.378 181.706L403.316 181.99L402.466 169.824C402.352 168.194 401.874 166.996 401.034 166.229C400.193 165.45 399.073 165.109 397.674 165.207C396.288 165.304 395.15 165.816 394.261 166.742C393.383 167.654 393.01 169.054 393.142 170.94ZM420.693 181.239C418.755 181.375 417.023 181.044 415.497 180.248C413.984 179.451 412.768 178.286 411.848 176.751C410.927 175.203 410.395 173.396 410.25 171.33C410.104 169.238 410.379 167.362 411.075 165.701C411.785 164.04 412.833 162.709 414.22 161.709C415.607 160.697 417.269 160.123 419.207 159.987C420.824 159.874 422.29 160.094 423.605 160.647C424.932 161.186 426.033 161.986 426.907 163.047C427.78 164.108 428.351 165.351 428.618 166.777L424.576 167.059C424.291 165.932 423.712 165.031 422.839 164.357C421.967 163.682 420.844 163.393 419.471 163.489C417.713 163.612 416.385 164.357 415.487 165.722C414.59 167.087 414.217 168.86 414.37 171.042C414.521 173.198 415.135 174.883 416.213 176.097C417.291 177.312 418.709 177.857 420.467 177.734C421.866 177.637 422.919 177.208 423.627 176.449C424.334 175.678 424.78 174.686 424.966 173.474L429.067 173.187C429.011 174.609 428.625 175.913 427.909 177.098C427.191 178.27 426.213 179.228 424.976 179.972C423.737 180.704 422.31 181.126 420.693 181.239ZM433.019 179.913L431.597 159.585L435.659 159.301L437.081 179.629L433.019 179.913ZM433.374 155.94C432.655 155.991 432.029 155.796 431.495 155.356C430.973 154.902 430.688 154.329 430.64 153.636C430.59 152.93 430.793 152.323 431.247 151.814C431.714 151.291 432.306 151.005 433.025 150.955C433.744 150.904 434.37 151.106 434.905 151.558C435.439 151.998 435.73 152.571 435.779 153.277C435.828 153.97 435.619 154.578 435.153 155.1C434.685 155.61 434.092 155.89 433.374 155.94ZM443.737 150.341L445.743 179.023L441.681 179.307L439.676 150.625L443.737 150.341Z" fill="#F1EFFD"/>
</svg>
