<svg width="80" height="80" viewBox="0 0 80 80" fill="none" xmlns="http://www.w3.org/2000/svg">
<path d="M50 70.0001V43.3334C50 42.4494 49.6488 41.6015 49.0237 40.9764C48.3986 40.3513 47.5507 40.0001 46.6667 40.0001H33.3333C32.4493 40.0001 31.6014 40.3513 30.9763 40.9764C30.3512 41.6015 30 42.4494 30 43.3334V70.0001M10 33.3334C9.99977 32.3637 10.2111 31.4055 10.6193 30.5258C11.0275 29.6461 11.6227 28.8661 12.3633 28.2401L35.6967 8.24345C36.9 7.22648 38.4245 6.66852 40 6.66852C41.5755 6.66852 43.1 7.22648 44.3033 8.24345L67.6367 28.2401C68.3773 28.8661 68.9725 29.6461 69.3807 30.5258C69.7889 31.4055 70.0002 32.3637 70 33.3334V63.3334C70 65.1016 69.2976 66.7972 68.0474 68.0475C66.7971 69.2977 65.1014 70.0001 63.3333 70.0001H16.6667C14.8986 70.0001 13.2029 69.2977 11.9526 68.0475C10.7024 66.7972 10 65.1016 10 63.3334V33.3334Z" stroke="#F1EFFD" stroke-width="6.66667" stroke-linecap="round" stroke-linejoin="round"/>
</svg>
