<svg width="80" height="80" viewBox="0 0 80 80" fill="none" xmlns="http://www.w3.org/2000/svg">
<path d="M13.3346 20L6.66797 23.3333M33.3346 20H46.668M73.3346 23.3333L66.668 20M60.0013 63.3333C63.6832 63.3333 66.668 60.3486 66.668 56.6667V16.6667C66.668 12.9848 63.6832 10 60.0013 10H20.0013C16.3194 10 13.3346 12.9848 13.3346 16.6667V56.6667C13.3346 60.3486 16.3194 63.3333 20.0013 63.3333M60.0013 63.3333H20.0013M60.0013 63.3333V70M20.0013 63.3333V70M13.3346 36.6667H66.668M26.668 50H26.7013M53.3346 50H53.368" stroke="#3B0764" stroke-width="6.66667" stroke-linecap="round" stroke-linejoin="round"/>
</svg>
