<svg width="80" height="80" viewBox="0 0 80 80" fill="none" xmlns="http://www.w3.org/2000/svg">
<path d="M39.9961 16.6667V73.3334M39.9961 73.3334H29.9961M39.9961 73.3334H49.9961M69.9961 43.3334L61.6628 26.6667L53.3294 43.3334M26.6628 43.3334L18.3294 26.6667L9.99609 43.3334" stroke="#F1EFFD" stroke-width="5" stroke-linecap="round" stroke-linejoin="round"/>
<path d="M13.3297 26.6667H16.823C21.0363 26.6667 25.123 24.9034 28.4097 21.6667C35.183 15 44.8097 15 51.583 21.6667C54.8697 24.9034 58.9563 26.6667 63.1697 26.6667H66.663M61.663 56.6667C66.1797 56.6667 70.1097 53.8867 72.153 49.7834C73.2563 47.5667 73.8063 46.46 72.803 44.8967C71.7963 43.3334 70.1297 43.3334 66.7963 43.3334H56.523C53.193 43.3334 51.5263 43.3334 50.523 44.8967C49.5163 46.46 50.0663 47.5667 51.1697 49.7834C53.2163 53.8867 57.1463 56.6667 61.663 56.6667ZM18.3297 56.6667C22.8463 56.6667 26.7763 53.8867 28.8197 49.7834C29.923 47.5667 30.473 46.46 29.4697 44.8967C28.463 43.3334 26.7963 43.3334 23.463 43.3334H13.193C9.863 43.3334 8.19633 43.3334 7.193 44.8967C6.18633 46.46 6.73633 47.5667 7.83967 49.7834C9.883 53.8867 13.813 56.6667 18.3297 56.6667Z" stroke="#F1EFFD" stroke-width="5" stroke-linecap="round" stroke-linejoin="round"/>
<path d="M44.9961 11.6667C44.9961 12.9928 44.4693 14.2645 43.5316 15.2022C42.5939 16.1399 41.3222 16.6667 39.9961 16.6667C38.67 16.6667 37.3982 16.1399 36.4606 15.2022C35.5229 14.2645 34.9961 12.9928 34.9961 11.6667C34.9961 10.3406 35.5229 9.06884 36.4606 8.13115C37.3982 7.19347 38.67 6.66669 39.9961 6.66669C41.3222 6.66669 42.5939 7.19347 43.5316 8.13115C44.4693 9.06884 44.9961 10.3406 44.9961 11.6667Z" stroke="#F1EFFD" stroke-width="5" stroke-linecap="round" stroke-linejoin="round"/>
</svg>
