<svg width="270" height="87" viewBox="0 0 270 87" fill="none" xmlns="http://www.w3.org/2000/svg">
<g clip-path="url(#clip0_69_338)">
<mask id="mask0_69_338" style="mask-type:luminance" maskUnits="userSpaceOnUse" x="0" y="0" width="270" height="87">
<path d="M269.637 0H0.636719V87H269.637V0Z" fill="white"/>
</mask>
<g mask="url(#mask0_69_338)">
<path d="M123.902 19.6601H120.964L119.354 51.177L117.362 86.8399H100.015L98.1162 51.177L96.5067 19.6601H93.5603C92.9046 41.2416 92.2404 69.3118 91.9509 86.8399H80.3867C81.7151 64.2472 82.473 35.4354 82.473 12.3624C82.473 8.00562 82.473 3.85112 82.3794 0H105.04L106.649 40.3315L107.79 67.1882H109.681L110.728 40.3315L113.095 0H134.997C134.904 3.85112 134.81 8.00562 134.81 12.3624C134.81 35.4691 135.662 64.2472 137.084 86.8399H125.417C125.145 69.3118 124.472 41.2416 123.902 19.6601Z" fill="#FF0E08"/>
<path d="M167.145 86.84C166.949 81.0675 166.668 75.2951 166.387 69.5142H154.533L153.682 86.84H140.977C143.821 57.8597 146.001 28.9804 148.181 0.0422363H172.638C174.724 29.0226 177.006 57.9018 179.85 86.8821L167.145 86.84ZM165.817 58.5675C164.965 43.2726 163.824 27.8681 162.683 12.5647H158.229C157.088 27.8681 156.049 43.2726 155.198 58.5675H165.817Z" fill="#FF0E08"/>
<path d="M226.479 86.84H208L200.421 47.8316L197.951 19.8625H196.248C195.959 42.2529 196.146 64.5254 196.623 86.84H183.73C184.673 57.958 184.673 29.0254 183.73 0.0422363H201.783L210.793 41.7894L212.786 67.0198H214.208C214.685 44.7304 214.489 22.3569 213.637 0.0422363H226.479C225.82 28.9917 225.82 57.9243 226.479 86.84Z" fill="#FF0E08"/>
<path d="M269.254 66.0675C269.441 82.9889 265.268 86.84 250.673 86.84H234.995V72.354L256.336 72.2529C256.523 65.5619 256.617 58.4664 256.71 51.1855H254.624C254.53 61.1125 251.967 63.4467 246.756 63.4467C244.099 63.4467 243.434 63.3456 242.677 63.3456C235.191 63.2445 231.87 58.2894 231.964 49.7613C231.87 37.7024 231.87 21.3877 231.777 0.0422363H244.857C244.576 23.6377 244.482 37.1209 244.576 48.4804H256.71C256.898 32.0647 256.71 15.0422 256.336 0.0422363H269.603C268.939 23.149 268.939 42.3962 269.228 62.663L269.254 66.0675Z" fill="#FF0E08"/>
<path d="M8.04531 1.94299e-05H74.0414V54.4972H0.636719V7.3062C0.637835 6.34492 0.830412 5.39329 1.20344 4.50571C1.57646 3.61813 2.12262 2.81202 2.81069 2.13347C3.49875 1.45492 4.31522 0.917237 5.21342 0.551162C6.11162 0.185088 7.07392 -0.00219613 8.04531 1.94299e-05Z" fill="#007EFC"/>
<path d="M4.39211 65.7303C4.39211 67.9298 4.34102 70.1292 4.34102 72.3371C5.62688 72.3371 6.9468 72.3371 8.48813 72.2191V76.1461C6.98086 76.1461 5.66094 76.1461 4.39211 76.1461H4.34102C4.34102 79.7022 4.39209 83.2837 4.47725 86.8314H0.636719C0.934766 78.4045 0.934766 70.0787 0.636719 61.677H9.25453V65.7893C8.37742 65.7303 6.0186 65.7303 4.39211 65.7303Z" fill="#FF0E08"/>
<path d="M11.2551 82.4747C11.3402 77.132 11.3402 71.4691 11.2551 66.0337C11.204 63.5056 12.8475 61.4832 15.2148 61.4832H17.9568C20.2986 61.4832 21.9762 63.4803 21.9166 66.0337C21.8315 71.4691 21.8315 77.132 21.9166 82.4747C21.9762 85.0028 20.2986 87 17.9568 87H15.2148C12.8475 87 11.204 85.0028 11.2551 82.4747ZM18.3486 83.2163C18.4848 77.25 18.4848 71.2669 18.3486 65.2669H14.8316C14.6897 71.2612 14.6897 77.2444 14.8316 83.2163C15.7343 83.2416 17.4118 83.2416 18.3486 83.2163Z" fill="#FF0E08"/>
<path d="M24.0802 61.6685H31.4718C31.9334 61.6824 32.3875 61.7877 32.8073 61.9781C33.2271 62.1685 33.6041 62.4403 33.916 62.7772C34.228 63.1142 34.4686 63.5096 34.6235 63.9401C34.7785 64.3706 34.8448 64.8275 34.8184 65.2837C34.8184 67.0702 34.8184 70.0365 34.8184 71.8315C34.8184 74.4944 33.2005 75.2023 31.1652 75.3455V75.7584C33.8647 75.9944 34.8184 76.4073 34.8184 78.6405C34.8184 81.1686 35.0398 85.2135 35.1505 86.823H31.1396C31.31 83.1236 31.31 80.6882 31.1396 77.0478C29.8793 76.9888 28.4828 76.9635 27.5461 76.9635C27.5461 80.6292 27.5461 83.1573 27.6312 86.823H24.0547C24.3868 78.4298 24.3868 70.4494 24.0802 61.6685ZM31.1652 73.9719C31.2759 71.5365 31.31 67.9214 31.1652 65.427H27.6227C27.5716 67.8624 27.5461 71.5955 27.5716 74.0562L31.1652 73.9719Z" fill="#FF0E08"/>
<path d="M47.6505 65.6377C47.5398 72.6826 47.5398 79.8118 47.7016 86.823H43.8866C44.1335 79.8118 44.1932 72.6826 44.0228 65.604C42.9839 65.6629 41.9365 65.7219 40.8125 65.8062V61.6685H50.7246V65.8062C49.6176 65.7303 48.6043 65.6629 47.6505 65.6377Z" fill="#FF0E08"/>
<path d="M63.1067 86.7977H59.3939C59.5046 83.1319 59.5897 79.4662 59.5897 75.792H55.8514C55.8514 79.4662 55.8883 83.1347 55.9621 86.7977H52.2578C52.553 78.4381 52.553 70.0533 52.2578 61.6432H55.9621C55.8883 65.4016 55.8514 69.16 55.8514 72.9184C57.1202 72.9184 58.355 72.9184 59.5897 72.9184C59.5897 69.1347 59.5046 65.3342 59.3939 61.6179H63.1067C62.9137 70.0561 62.9137 78.4493 63.1067 86.7977Z" fill="#FF0E08"/>
<path d="M69.1695 65.8989C69.1695 68.0983 69.1184 70.3315 69.1184 72.5309H69.7912C70.8556 72.5309 71.9541 72.5309 73.2485 72.4719V75.8427H69.1014C69.1014 78.0759 69.1014 80.3343 69.1525 82.5843C69.7316 82.5843 70.3617 82.5843 71.0259 82.5843C72.2011 82.5843 73.4103 82.5253 74.0149 82.5V86.7978H65.4141C65.5504 82.6012 65.6213 78.4045 65.627 74.2079C65.627 70.045 65.5504 65.8399 65.4141 61.6433H74.049V65.9326C73.4444 65.8736 72.2351 65.8399 71.06 65.8399C70.3787 65.8652 69.7912 65.8652 69.1695 65.8989Z" fill="#FF0E08"/>
</g>
</g>
<defs>
<clipPath id="clip0_69_338">
<rect width="269" height="87" fill="white" transform="translate(0.636719)"/>
</clipPath>
</defs>
</svg>
